<svg width="7.25in" height="7.625in" viewBox="0 0 7.25 7.625" xmlns="http://www.w3.org/2000/svg" version="1.1" preserveAspectRatio="xMidYMid meet"><g id="svgGroup" stroke-linecap="round" fill-rule="evenodd" font-size="9pt" stroke="#000" stroke-width="0.25mm" fill="none" style="stroke:#000;stroke-width:0.25mm;fill:none"><path d="M 0 3.875 L 0 4.655 L 0.118 4.655 L 0.118 5.385 L 0 5.385 L 0 6.115 L 0.118 6.115 L 0.118 6.845 L 0 6.845 L 0 7.625 L 1.01 7.625 L 1.01 7.507 L 1.74 7.507 L 1.74 7.625 L 2.47 7.625 L 2.75 7.625 L 2.75 6.845 L 2.632 6.845 L 2.632 6.115 L 2.75 6.115 L 2.75 5.385 L 2.632 5.385 L 2.632 4.655 L 2.75 4.655 L 2.75 3.875 L 0 3.875 Z" id="front_outsideCutPath" stroke="#FF0000" stroke-width="0.1" style="stroke:#FF0000;stroke-width:0.1" vector-effect="non-scaling-stroke"/><path d="M 1.776 5.958 L 1.731 5.958 L 1.731 5.767 A 0.126 0.126 0 0 0 1.73 5.748 Q 1.726 5.726 1.715 5.714 A 0.05 0.05 0 0 0 1.694 5.7 Q 1.686 5.698 1.676 5.697 A 0.118 0.118 0 0 0 1.664 5.696 A 0.135 0.135 0 0 0 1.638 5.698 Q 1.611 5.703 1.596 5.721 Q 1.576 5.744 1.575 5.794 A 0.285 0.285 0 0 0 1.574 5.803 L 1.574 5.958 L 1.53 5.958 L 1.53 5.663 L 1.566 5.663 L 1.573 5.704 L 1.575 5.704 A 0.09 0.09 0 0 1 1.611 5.671 A 0.109 0.109 0 0 1 1.614 5.67 A 0.121 0.121 0 0 1 1.657 5.659 A 0.146 0.146 0 0 1 1.669 5.658 A 0.176 0.176 0 0 1 1.699 5.66 Q 1.73 5.666 1.749 5.684 A 0.077 0.077 0 0 1 1.768 5.713 Q 1.776 5.735 1.776 5.766 L 1.776 5.958 Z M 0.919 5.663 L 0.919 5.698 L 0.844 5.698 L 0.844 5.958 L 0.8 5.958 L 0.8 5.698 L 0.747 5.698 L 0.747 5.678 L 0.8 5.662 L 0.8 5.645 A 0.181 0.181 0 0 1 0.804 5.604 Q 0.817 5.549 0.871 5.539 A 0.135 0.135 0 0 1 0.895 5.537 Q 0.913 5.537 0.936 5.543 A 0.289 0.289 0 0 1 0.949 5.546 L 0.938 5.582 Q 0.912 5.574 0.894 5.574 Q 0.869 5.574 0.857 5.59 A 0.052 0.052 0 0 0 0.85 5.604 Q 0.845 5.618 0.845 5.638 A 0.21 0.21 0 0 0 0.844 5.644 L 0.844 5.663 L 0.919 5.663 Z M 2.003 5.921 L 2.003 5.955 A 0.044 0.044 0 0 1 1.998 5.957 Q 1.992 5.959 1.984 5.96 A 0.167 0.167 0 0 1 1.981 5.961 Q 1.968 5.963 1.958 5.963 A 0.115 0.115 0 0 1 1.956 5.963 A 0.116 0.116 0 0 1 1.922 5.958 Q 1.884 5.947 1.874 5.906 A 0.14 0.14 0 0 1 1.871 5.873 L 1.871 5.698 L 1.828 5.698 L 1.828 5.677 L 1.871 5.658 L 1.889 5.595 L 1.915 5.595 L 1.915 5.663 L 2.001 5.663 L 2.001 5.698 L 1.915 5.698 L 1.915 5.871 Q 1.915 5.898 1.928 5.912 A 0.041 0.041 0 0 0 1.953 5.926 A 0.06 0.06 0 0 0 1.962 5.926 Q 1.974 5.926 1.985 5.925 A 0.241 0.241 0 0 0 1.992 5.923 Q 1.995 5.923 1.997 5.922 A 0.093 0.093 0 0 0 2.002 5.921 Z M 1.143 5.661 L 1.136 5.703 A 0.196 0.196 0 0 0 1.122 5.7 Q 1.115 5.699 1.109 5.699 A 0.104 0.104 0 0 0 1.104 5.699 A 0.077 0.077 0 0 0 1.047 5.723 A 0.106 0.106 0 0 0 1.043 5.728 A 0.102 0.102 0 0 0 1.019 5.785 A 0.135 0.135 0 0 0 1.018 5.8 L 1.018 5.958 L 0.973 5.958 L 0.973 5.663 L 1.01 5.663 L 1.015 5.718 L 1.017 5.718 A 0.151 0.151 0 0 1 1.034 5.694 A 0.115 0.115 0 0 1 1.057 5.674 A 0.089 0.089 0 0 1 1.107 5.658 A 0.205 0.205 0 0 1 1.126 5.659 A 0.149 0.149 0 0 1 1.143 5.661 Z M 1.448 5.855 A 0.23 0.23 0 0 0 1.452 5.81 A 0.261 0.261 0 0 0 1.452 5.803 Q 1.451 5.779 1.446 5.758 A 0.139 0.139 0 0 0 1.415 5.699 A 0.117 0.117 0 0 0 1.361 5.664 A 0.15 0.15 0 0 0 1.317 5.658 A 0.173 0.173 0 0 0 1.286 5.661 A 0.118 0.118 0 0 0 1.217 5.698 Q 1.193 5.725 1.185 5.766 A 0.231 0.231 0 0 0 1.181 5.81 A 0.223 0.223 0 0 0 1.184 5.846 A 0.165 0.165 0 0 0 1.198 5.891 A 0.146 0.146 0 0 0 1.201 5.898 A 0.121 0.121 0 0 0 1.245 5.945 A 0.124 0.124 0 0 0 1.274 5.957 A 0.143 0.143 0 0 0 1.315 5.963 A 0.173 0.173 0 0 0 1.345 5.961 A 0.119 0.119 0 0 0 1.415 5.923 A 0.124 0.124 0 0 0 1.43 5.902 Q 1.442 5.882 1.448 5.855 Z M 1.227 5.81 Q 1.227 5.867 1.25 5.896 A 0.073 0.073 0 0 0 1.298 5.924 A 0.111 0.111 0 0 0 1.316 5.926 A 0.104 0.104 0 0 0 1.344 5.922 A 0.072 0.072 0 0 0 1.383 5.896 A 0.096 0.096 0 0 0 1.398 5.867 Q 1.402 5.854 1.404 5.838 A 0.235 0.235 0 0 0 1.405 5.81 A 0.222 0.222 0 0 0 1.403 5.779 Q 1.401 5.762 1.396 5.749 A 0.092 0.092 0 0 0 1.383 5.725 Q 1.36 5.696 1.316 5.696 A 0.106 0.106 0 0 0 1.289 5.699 A 0.071 0.071 0 0 0 1.25 5.725 A 0.092 0.092 0 0 0 1.235 5.752 Q 1.227 5.776 1.227 5.81 Z" id="front_labelLayer" stroke="#777777" fill="#777777" style="stroke:#777777;fill:#777777" vector-effect="non-scaling-stroke"/><path d="M 2.993 3.875 L 2.993 4.655 L 2.875 4.655 L 2.875 5.385 L 2.993 5.385 L 2.993 6.115 L 2.875 6.115 L 2.875 6.845 L 2.993 6.845 L 2.993 7.625 L 3.26 7.625 L 3.26 7.507 L 3.99 7.507 L 3.99 7.625 L 4.257 7.625 L 4.257 6.845 L 4.375 6.845 L 4.375 6.115 L 4.257 6.115 L 4.257 5.385 L 4.375 5.385 L 4.375 4.655 L 4.257 4.655 L 4.257 3.875 L 2.993 3.875 Z" id="left_outsideCutPath" stroke="#FF0000" stroke-width="0.1" style="stroke:#FF0000;stroke-width:0.1" vector-effect="non-scaling-stroke"/><path d="M 3.732 5.703 L 3.732 5.722 L 3.691 5.722 L 3.691 5.863 L 3.667 5.863 L 3.667 5.722 L 3.638 5.722 L 3.638 5.711 L 3.667 5.702 L 3.667 5.693 Q 3.667 5.642 3.705 5.635 A 0.074 0.074 0 0 1 3.718 5.634 A 0.078 0.078 0 0 1 3.729 5.635 Q 3.735 5.635 3.741 5.637 A 0.158 0.158 0 0 1 3.748 5.639 L 3.742 5.658 A 0.118 0.118 0 0 0 3.733 5.656 Q 3.724 5.654 3.718 5.654 A 0.033 0.033 0 0 0 3.71 5.655 A 0.021 0.021 0 0 0 3.697 5.663 Q 3.691 5.672 3.691 5.692 L 3.691 5.703 L 3.732 5.703 Z M 3.618 5.772 L 3.618 5.787 L 3.507 5.787 A 0.098 0.098 0 0 0 3.509 5.804 Q 3.511 5.813 3.514 5.82 A 0.046 0.046 0 0 0 3.522 5.83 A 0.044 0.044 0 0 0 3.545 5.843 A 0.067 0.067 0 0 0 3.56 5.845 A 0.128 0.128 0 0 0 3.608 5.835 A 0.147 0.147 0 0 0 3.611 5.834 L 3.611 5.856 A 0.146 0.146 0 0 1 3.598 5.861 A 0.112 0.112 0 0 1 3.587 5.864 A 0.102 0.102 0 0 1 3.576 5.865 Q 3.572 5.866 3.566 5.866 A 0.198 0.198 0 0 1 3.559 5.866 Q 3.523 5.866 3.503 5.845 A 0.072 0.072 0 0 1 3.486 5.813 Q 3.483 5.802 3.482 5.789 A 0.139 0.139 0 0 1 3.482 5.784 A 0.128 0.128 0 0 1 3.484 5.759 Q 3.488 5.744 3.495 5.732 A 0.072 0.072 0 0 1 3.501 5.723 A 0.062 0.062 0 0 1 3.547 5.7 A 0.086 0.086 0 0 1 3.553 5.7 Q 3.583 5.7 3.6 5.72 A 0.068 0.068 0 0 1 3.616 5.751 A 0.099 0.099 0 0 1 3.618 5.772 Z M 3.835 5.843 L 3.835 5.862 Q 3.831 5.864 3.823 5.865 A 0.105 0.105 0 0 1 3.816 5.866 A 0.076 0.076 0 0 1 3.81 5.866 A 0.064 0.064 0 0 1 3.791 5.864 Q 3.77 5.857 3.765 5.835 A 0.076 0.076 0 0 1 3.763 5.817 L 3.763 5.722 L 3.74 5.722 L 3.74 5.71 L 3.763 5.7 L 3.773 5.666 L 3.787 5.666 L 3.787 5.703 L 3.834 5.703 L 3.834 5.722 L 3.787 5.722 L 3.787 5.816 A 0.049 0.049 0 0 0 3.788 5.825 Q 3.789 5.829 3.79 5.833 A 0.024 0.024 0 0 0 3.794 5.838 A 0.023 0.023 0 0 0 3.808 5.846 A 0.032 0.032 0 0 0 3.813 5.846 Q 3.819 5.846 3.825 5.845 A 0.131 0.131 0 0 0 3.829 5.845 A 0.085 0.085 0 0 0 3.832 5.844 A 0.051 0.051 0 0 0 3.835 5.843 Z M 3.439 5.635 L 3.439 5.863 L 3.415 5.863 L 3.415 5.635 L 3.439 5.635 Z M 3.508 5.768 L 3.592 5.768 Q 3.592 5.752 3.587 5.741 A 0.038 0.038 0 0 0 3.582 5.732 Q 3.571 5.72 3.552 5.72 A 0.048 0.048 0 0 0 3.538 5.722 A 0.037 0.037 0 0 0 3.521 5.733 Q 3.51 5.745 3.508 5.768 Z" id="left_labelLayer" stroke="#777777" fill="#777777" style="stroke:#777777;fill:#777777" vector-effect="non-scaling-stroke"/><path d="M 0 0 L 0 0.78 L 0.118 0.78 L 0.118 1.51 L 0 1.51 L 0 2.24 L 0.118 2.24 L 0.118 2.97 L 0 2.97 L 0 3.75 L 1.01 3.75 L 1.01 3.632 L 1.74 3.632 L 1.74 3.75 L 2.47 3.75 L 2.75 3.75 L 2.75 2.97 L 2.632 2.97 L 2.632 2.24 L 2.75 2.24 L 2.75 1.51 L 2.632 1.51 L 2.632 0.78 L 2.75 0.78 L 2.75 0 L 0 0 Z" id="back_outsideCutPath" stroke="#FF0000" stroke-width="0.1" style="stroke:#FF0000;stroke-width:0.1" vector-effect="non-scaling-stroke"/><path d="M 1.752 1.931 L 1.754 1.931 A 0.264 0.264 0 0 1 1.76 1.922 Q 1.771 1.908 1.789 1.888 L 1.884 1.787 L 1.937 1.787 L 1.818 1.912 L 1.945 2.081 L 1.891 2.081 L 1.787 1.942 L 1.754 1.971 L 1.754 2.081 L 1.71 2.081 L 1.71 1.663 L 1.754 1.663 L 1.754 1.885 A 0.297 0.297 0 0 1 1.754 1.893 Q 1.753 1.907 1.752 1.931 Z M 0.849 2.043 L 0.846 2.043 L 0.837 2.081 L 0.805 2.081 L 0.805 1.663 L 0.849 1.663 L 0.849 1.765 A 0.93 0.93 0 0 1 0.849 1.796 Q 0.848 1.812 0.847 1.826 L 0.849 1.826 A 0.101 0.101 0 0 1 0.923 1.783 A 0.152 0.152 0 0 1 0.942 1.782 A 0.136 0.136 0 0 1 0.98 1.787 A 0.102 0.102 0 0 1 1.032 1.822 Q 1.058 1.853 1.063 1.906 A 0.286 0.286 0 0 1 1.064 1.934 Q 1.064 1.985 1.048 2.02 A 0.125 0.125 0 0 1 1.032 2.046 A 0.106 0.106 0 0 1 0.957 2.086 A 0.151 0.151 0 0 1 0.942 2.087 A 0.135 0.135 0 0 1 0.908 2.082 A 0.118 0.118 0 0 1 0.889 2.076 Q 0.866 2.065 0.849 2.043 Z M 1.356 2.081 L 1.323 2.081 L 1.314 2.039 L 1.312 2.039 A 0.185 0.185 0 0 1 1.297 2.056 Q 1.289 2.064 1.281 2.07 A 0.082 0.082 0 0 1 1.268 2.077 Q 1.25 2.085 1.225 2.086 A 0.201 0.201 0 0 1 1.213 2.087 Q 1.17 2.087 1.145 2.064 A 0.073 0.073 0 0 1 1.123 2.025 A 0.112 0.112 0 0 1 1.12 2 A 0.077 0.077 0 0 1 1.164 1.927 Q 1.199 1.908 1.262 1.906 L 1.312 1.905 L 1.312 1.887 Q 1.312 1.865 1.307 1.851 A 0.05 0.05 0 0 0 1.298 1.835 Q 1.286 1.822 1.262 1.82 A 0.11 0.11 0 0 0 1.25 1.819 Q 1.213 1.819 1.167 1.841 L 1.153 1.807 A 0.206 0.206 0 0 1 1.193 1.791 A 0.234 0.234 0 0 1 1.201 1.789 A 0.206 0.206 0 0 1 1.253 1.782 Q 1.285 1.782 1.308 1.791 A 0.076 0.076 0 0 1 1.331 1.805 A 0.071 0.071 0 0 1 1.349 1.834 Q 1.353 1.845 1.355 1.859 A 0.175 0.175 0 0 1 1.356 1.88 L 1.356 2.081 Z M 1.644 1.797 L 1.63 1.835 A 0.198 0.198 0 0 0 1.609 1.828 A 0.237 0.237 0 0 0 1.598 1.825 A 0.184 0.184 0 0 0 1.584 1.822 Q 1.577 1.821 1.571 1.821 A 0.099 0.099 0 0 0 1.567 1.821 Q 1.488 1.821 1.479 1.911 A 0.246 0.246 0 0 0 1.478 1.935 Q 1.478 1.99 1.499 2.019 A 0.071 0.071 0 0 0 1.545 2.046 A 0.108 0.108 0 0 0 1.564 2.048 Q 1.601 2.048 1.64 2.032 L 1.64 2.071 Q 1.614 2.084 1.578 2.086 A 0.245 0.245 0 0 1 1.565 2.087 A 0.167 0.167 0 0 1 1.525 2.082 A 0.113 0.113 0 0 1 1.466 2.047 A 0.129 0.129 0 0 1 1.44 1.998 Q 1.431 1.971 1.431 1.936 A 0.246 0.246 0 0 1 1.435 1.891 Q 1.443 1.849 1.467 1.822 A 0.115 0.115 0 0 1 1.53 1.785 A 0.175 0.175 0 0 1 1.568 1.782 Q 1.59 1.782 1.611 1.786 A 0.222 0.222 0 0 1 1.623 1.789 Q 1.629 1.791 1.634 1.793 A 0.088 0.088 0 0 1 1.644 1.797 Z M 0.935 1.819 A 0.125 0.125 0 0 0 0.911 1.822 Q 0.884 1.827 0.87 1.846 A 0.076 0.076 0 0 0 0.859 1.867 Q 0.849 1.892 0.849 1.934 Q 0.849 1.996 0.87 2.023 A 0.065 0.065 0 0 0 0.903 2.045 Q 0.914 2.048 0.927 2.049 A 0.143 0.143 0 0 0 0.936 2.049 A 0.089 0.089 0 0 0 0.962 2.046 A 0.064 0.064 0 0 0 0.998 2.019 Q 1.012 1.998 1.016 1.963 A 0.255 0.255 0 0 0 1.018 1.933 A 0.263 0.263 0 0 0 1.016 1.903 Q 1.012 1.87 1 1.851 A 0.074 0.074 0 0 0 0.998 1.848 Q 0.978 1.819 0.935 1.819 Z M 1.311 1.963 L 1.311 1.936 L 1.267 1.938 Q 1.222 1.94 1.199 1.95 A 0.068 0.068 0 0 0 1.19 1.955 A 0.048 0.048 0 0 0 1.167 1.989 A 0.07 0.07 0 0 0 1.167 2 Q 1.167 2.022 1.178 2.034 A 0.04 0.04 0 0 0 1.181 2.037 A 0.049 0.049 0 0 0 1.199 2.047 Q 1.207 2.049 1.215 2.05 A 0.1 0.1 0 0 0 1.222 2.05 A 0.123 0.123 0 0 0 1.249 2.047 Q 1.267 2.043 1.281 2.033 A 0.074 0.074 0 0 0 1.288 2.027 A 0.075 0.075 0 0 0 1.308 1.99 A 0.113 0.113 0 0 0 1.311 1.964 Z" id="back_labelLayer" stroke="#777777" fill="#777777" style="stroke:#777777;fill:#777777" vector-effect="non-scaling-stroke"/><path d="M 2.993 0 L 2.993 0.78 L 2.875 0.78 L 2.875 1.51 L 2.993 1.51 L 2.993 2.24 L 2.875 2.24 L 2.875 2.97 L 2.993 2.97 L 2.993 3.75 L 3.26 3.75 L 3.26 3.632 L 3.99 3.632 L 3.99 3.75 L 4.257 3.75 L 4.257 2.97 L 4.375 2.97 L 4.375 2.24 L 4.257 2.24 L 4.257 1.51 L 4.375 1.51 L 4.375 0.78 L 4.257 0.78 L 4.257 0 L 2.993 0 Z" id="right_outsideCutPath" stroke="#FF0000" stroke-width="0.1" style="stroke:#FF0000;stroke-width:0.1" vector-effect="non-scaling-stroke"/><path d="M 3.812 1.953 L 3.787 1.953 L 3.787 1.849 A 0.069 0.069 0 0 0 3.786 1.838 Q 3.785 1.827 3.778 1.82 A 0.027 0.027 0 0 0 3.767 1.813 Q 3.76 1.81 3.75 1.81 A 0.074 0.074 0 0 0 3.737 1.811 Q 3.729 1.813 3.723 1.816 A 0.034 0.034 0 0 0 3.713 1.824 A 0.04 0.04 0 0 0 3.706 1.836 Q 3.702 1.847 3.702 1.864 A 0.157 0.157 0 0 0 3.702 1.869 L 3.702 1.953 L 3.677 1.953 L 3.677 1.725 L 3.702 1.725 L 3.702 1.794 Q 3.702 1.803 3.701 1.81 A 0.095 0.095 0 0 1 3.701 1.815 L 3.702 1.815 A 0.049 0.049 0 0 1 3.719 1.798 A 0.059 0.059 0 0 1 3.722 1.796 Q 3.736 1.79 3.753 1.79 A 0.099 0.099 0 0 1 3.769 1.791 Q 3.778 1.793 3.785 1.796 A 0.044 0.044 0 0 1 3.797 1.804 A 0.042 0.042 0 0 1 3.807 1.82 Q 3.81 1.827 3.811 1.835 A 0.105 0.105 0 0 1 3.812 1.848 L 3.812 1.953 Z M 3.589 1.792 L 3.644 1.792 L 3.644 1.808 L 3.615 1.811 A 0.04 0.04 0 0 1 3.618 1.816 Q 3.62 1.819 3.621 1.822 A 0.075 0.075 0 0 1 3.622 1.825 A 0.047 0.047 0 0 1 3.625 1.836 A 0.06 0.06 0 0 1 3.625 1.843 A 0.056 0.056 0 0 1 3.623 1.861 A 0.045 0.045 0 0 1 3.609 1.881 A 0.054 0.054 0 0 1 3.588 1.892 Q 3.578 1.895 3.565 1.895 A 0.078 0.078 0 0 1 3.556 1.895 A 0.066 0.066 0 0 1 3.551 1.894 A 0.043 0.043 0 0 0 3.544 1.898 Q 3.541 1.901 3.539 1.905 A 0.018 0.018 0 0 0 3.536 1.915 A 0.013 0.013 0 0 0 3.537 1.919 A 0.01 0.01 0 0 0 3.541 1.924 Q 3.547 1.927 3.56 1.927 L 3.588 1.927 A 0.1 0.1 0 0 1 3.603 1.929 Q 3.611 1.93 3.618 1.932 A 0.044 0.044 0 0 1 3.628 1.938 A 0.036 0.036 0 0 1 3.642 1.961 A 0.053 0.053 0 0 1 3.642 1.97 A 0.053 0.053 0 0 1 3.639 1.989 A 0.045 0.045 0 0 1 3.622 2.01 A 0.073 0.073 0 0 1 3.602 2.02 Q 3.593 2.022 3.582 2.024 A 0.193 0.193 0 0 1 3.559 2.025 A 0.136 0.136 0 0 1 3.54 2.024 Q 3.531 2.023 3.523 2.02 A 0.057 0.057 0 0 1 3.51 2.013 Q 3.494 2.002 3.493 1.983 A 0.051 0.051 0 0 1 3.493 1.98 Q 3.493 1.966 3.502 1.955 A 0.042 0.042 0 0 1 3.517 1.944 A 0.06 0.06 0 0 1 3.529 1.94 Q 3.523 1.938 3.519 1.932 A 0.023 0.023 0 0 1 3.514 1.92 A 0.028 0.028 0 0 1 3.514 1.918 A 0.028 0.028 0 0 1 3.516 1.909 A 0.025 0.025 0 0 1 3.519 1.903 Q 3.522 1.898 3.529 1.893 A 0.076 0.076 0 0 1 3.534 1.89 A 0.043 0.043 0 0 1 3.515 1.875 A 0.053 0.053 0 0 1 3.513 1.873 A 0.05 0.05 0 0 1 3.506 1.848 A 0.061 0.061 0 0 1 3.506 1.844 Q 3.506 1.818 3.521 1.804 A 0.052 0.052 0 0 1 3.541 1.793 Q 3.552 1.789 3.566 1.789 A 0.093 0.093 0 0 1 3.579 1.79 A 0.071 0.071 0 0 1 3.589 1.792 Z M 3.935 1.933 L 3.935 1.951 Q 3.931 1.953 3.924 1.955 A 0.105 0.105 0 0 1 3.917 1.956 A 0.076 0.076 0 0 1 3.911 1.956 A 0.064 0.064 0 0 1 3.891 1.953 Q 3.871 1.947 3.865 1.925 A 0.076 0.076 0 0 1 3.863 1.907 L 3.863 1.811 L 3.84 1.811 L 3.84 1.8 L 3.863 1.789 L 3.874 1.755 L 3.888 1.755 L 3.888 1.792 L 3.934 1.792 L 3.934 1.811 L 3.888 1.811 L 3.888 1.906 A 0.049 0.049 0 0 0 3.888 1.914 Q 3.889 1.919 3.891 1.923 A 0.024 0.024 0 0 0 3.894 1.928 A 0.023 0.023 0 0 0 3.908 1.935 A 0.032 0.032 0 0 0 3.913 1.936 Q 3.919 1.936 3.925 1.935 A 0.131 0.131 0 0 0 3.929 1.934 A 0.085 0.085 0 0 0 3.932 1.934 A 0.051 0.051 0 0 0 3.935 1.933 Z M 3.407 1.791 L 3.404 1.814 A 0.107 0.107 0 0 0 3.396 1.812 Q 3.392 1.812 3.389 1.812 A 0.057 0.057 0 0 0 3.386 1.812 A 0.042 0.042 0 0 0 3.355 1.825 A 0.058 0.058 0 0 0 3.353 1.827 Q 3.339 1.843 3.339 1.867 L 3.339 1.953 L 3.315 1.953 L 3.315 1.792 L 3.335 1.792 L 3.338 1.822 L 3.339 1.822 A 0.082 0.082 0 0 1 3.348 1.809 A 0.063 0.063 0 0 1 3.36 1.798 A 0.048 0.048 0 0 1 3.388 1.789 A 0.112 0.112 0 0 1 3.398 1.79 A 0.081 0.081 0 0 1 3.407 1.791 Z M 3.461 1.792 L 3.461 1.953 L 3.437 1.953 L 3.437 1.792 L 3.461 1.792 Z M 3.581 1.949 L 3.551 1.949 A 0.056 0.056 0 0 0 3.541 1.95 Q 3.532 1.952 3.526 1.957 A 0.026 0.026 0 0 0 3.517 1.972 A 0.039 0.039 0 0 0 3.516 1.98 A 0.024 0.024 0 0 0 3.518 1.989 Q 3.521 1.995 3.527 2 A 0.039 0.039 0 0 0 3.537 2.004 Q 3.541 2.005 3.547 2.006 A 0.1 0.1 0 0 0 3.559 2.006 Q 3.586 2.006 3.601 1.999 A 0.04 0.04 0 0 0 3.604 1.997 A 0.035 0.035 0 0 0 3.612 1.99 A 0.027 0.027 0 0 0 3.619 1.972 Q 3.619 1.964 3.616 1.959 A 0.015 0.015 0 0 0 3.611 1.954 A 0.023 0.023 0 0 0 3.605 1.952 Q 3.6 1.95 3.59 1.95 A 0.155 0.155 0 0 0 3.581 1.949 Z M 3.53 1.844 A 0.047 0.047 0 0 0 3.531 1.854 Q 3.532 1.86 3.535 1.865 A 0.026 0.026 0 0 0 3.539 1.869 A 0.031 0.031 0 0 0 3.552 1.876 Q 3.557 1.878 3.562 1.878 A 0.063 0.063 0 0 0 3.566 1.878 A 0.053 0.053 0 0 0 3.579 1.876 Q 3.595 1.872 3.6 1.856 A 0.049 0.049 0 0 0 3.601 1.843 A 0.052 0.052 0 0 0 3.599 1.829 Q 3.593 1.807 3.565 1.807 Q 3.552 1.807 3.544 1.813 A 0.028 0.028 0 0 0 3.539 1.816 A 0.029 0.029 0 0 0 3.532 1.828 Q 3.53 1.835 3.53 1.844 Z M 3.435 1.744 A 0.027 0.027 0 0 0 3.435 1.749 A 0.029 0.029 0 0 0 3.435 1.752 Q 3.436 1.758 3.439 1.761 A 0.014 0.014 0 0 0 3.444 1.764 A 0.015 0.015 0 0 0 3.449 1.765 A 0.014 0.014 0 0 0 3.46 1.761 Q 3.462 1.758 3.463 1.753 A 0.025 0.025 0 0 0 3.464 1.749 A 0.028 0.028 0 0 0 3.464 1.746 A 0.012 0.012 0 0 0 3.46 1.737 A 0.014 0.014 0 0 0 3.449 1.733 A 0.019 0.019 0 0 0 3.448 1.733 A 0.014 0.014 0 0 0 3.439 1.737 A 0.011 0.011 0 0 0 3.437 1.74 Z M 3.463 1.742 Q 3.463 1.744 3.464 1.746 M 3.435 1.744 Q 3.436 1.742 3.437 1.74" id="right_labelLayer" stroke="#777777" fill="#777777" style="stroke:#777777;fill:#777777" vector-effect="non-scaling-stroke"/><path d="M 4.618 6.243 L 4.618 6.51 L 4.5 6.51 L 4.5 7.24 L 4.618 7.24 L 4.618 7.507 L 5.51 7.507 L 5.51 7.625 L 6.24 7.625 L 6.24 7.507 L 6.97 7.507 L 7.132 7.507 L 7.132 7.24 L 7.25 7.24 L 7.25 6.51 L 7.132 6.51 L 7.132 6.243 L 6.24 6.243 L 6.24 6.125 L 5.51 6.125 L 5.51 6.243 L 4.78 6.243 L 4.618 6.243 Z" id="bottom_outsideCutPath" stroke="#FF0000" stroke-width="0.1" style="stroke:#FF0000;stroke-width:0.1" vector-effect="non-scaling-stroke"/><path d="M 6.369 6.987 L 6.344 6.987 L 6.344 6.883 A 0.072 0.072 0 0 0 6.343 6.873 Q 6.343 6.867 6.341 6.863 A 0.029 0.029 0 0 0 6.336 6.854 A 0.026 0.026 0 0 0 6.324 6.847 Q 6.32 6.845 6.315 6.845 A 0.056 0.056 0 0 0 6.31 6.845 A 0.063 0.063 0 0 0 6.298 6.846 Q 6.29 6.847 6.284 6.851 A 0.032 0.032 0 0 0 6.277 6.858 A 0.04 0.04 0 0 0 6.27 6.87 Q 6.268 6.876 6.267 6.883 A 0.108 0.108 0 0 0 6.266 6.898 L 6.266 6.987 L 6.242 6.987 L 6.242 6.883 A 0.072 0.072 0 0 0 6.241 6.873 Q 6.24 6.867 6.239 6.863 A 0.029 0.029 0 0 0 6.234 6.854 A 0.026 0.026 0 0 0 6.222 6.847 Q 6.216 6.845 6.208 6.845 A 0.06 0.06 0 0 0 6.195 6.846 Q 6.188 6.848 6.182 6.851 A 0.032 0.032 0 0 0 6.174 6.858 Q 6.165 6.871 6.164 6.898 A 0.169 0.169 0 0 0 6.164 6.903 L 6.164 6.987 L 6.14 6.987 L 6.14 6.827 L 6.159 6.827 L 6.163 6.849 L 6.164 6.849 A 0.048 0.048 0 0 1 6.184 6.831 A 0.058 0.058 0 0 1 6.207 6.824 A 0.07 0.07 0 0 1 6.212 6.824 A 0.08 0.08 0 0 1 6.23 6.826 Q 6.241 6.828 6.249 6.834 A 0.042 0.042 0 0 1 6.261 6.851 L 6.262 6.851 A 0.051 0.051 0 0 1 6.281 6.832 A 0.061 0.061 0 0 1 6.283 6.831 Q 6.297 6.824 6.314 6.824 A 0.085 0.085 0 0 1 6.329 6.825 Q 6.338 6.827 6.345 6.83 A 0.04 0.04 0 0 1 6.355 6.838 Q 6.369 6.852 6.369 6.883 L 6.369 6.987 Z M 5.406 6.967 L 5.404 6.967 L 5.399 6.987 L 5.381 6.987 L 5.381 6.76 L 5.406 6.76 L 5.406 6.815 A 0.507 0.507 0 0 1 5.406 6.832 A 0.366 0.366 0 0 1 5.405 6.847 L 5.406 6.848 A 0.055 0.055 0 0 1 5.446 6.825 A 0.083 0.083 0 0 1 5.456 6.824 A 0.074 0.074 0 0 1 5.477 6.827 A 0.056 0.056 0 0 1 5.505 6.846 A 0.072 0.072 0 0 1 5.518 6.87 Q 5.521 6.88 5.522 6.892 A 0.156 0.156 0 0 1 5.523 6.907 A 0.143 0.143 0 0 1 5.521 6.931 Q 5.519 6.944 5.514 6.954 A 0.068 0.068 0 0 1 5.505 6.969 A 0.058 0.058 0 0 1 5.464 6.99 A 0.082 0.082 0 0 1 5.456 6.99 Q 5.441 6.99 5.428 6.985 A 0.054 0.054 0 0 1 5.406 6.967 Z M 5.82 6.967 L 5.82 6.986 Q 5.816 6.988 5.809 6.989 A 0.105 0.105 0 0 1 5.802 6.99 A 0.076 0.076 0 0 1 5.796 6.99 A 0.064 0.064 0 0 1 5.776 6.988 Q 5.756 6.982 5.75 6.959 A 0.076 0.076 0 0 1 5.748 6.941 L 5.748 6.846 L 5.725 6.846 L 5.725 6.834 L 5.748 6.824 L 5.759 6.79 L 5.773 6.79 L 5.773 6.827 L 5.819 6.827 L 5.819 6.846 L 5.773 6.846 L 5.773 6.94 A 0.049 0.049 0 0 0 5.773 6.949 Q 5.774 6.954 5.776 6.957 A 0.024 0.024 0 0 0 5.779 6.963 A 0.023 0.023 0 0 0 5.793 6.97 A 0.032 0.032 0 0 0 5.798 6.97 Q 5.804 6.97 5.81 6.97 A 0.131 0.131 0 0 0 5.814 6.969 A 0.085 0.085 0 0 0 5.817 6.968 A 0.051 0.051 0 0 0 5.82 6.968 Z M 5.926 6.967 L 5.926 6.986 Q 5.922 6.988 5.915 6.989 A 0.105 0.105 0 0 1 5.908 6.99 A 0.076 0.076 0 0 1 5.902 6.99 A 0.064 0.064 0 0 1 5.882 6.988 Q 5.861 6.982 5.856 6.959 A 0.076 0.076 0 0 1 5.854 6.941 L 5.854 6.846 L 5.831 6.846 L 5.831 6.834 L 5.854 6.824 L 5.864 6.79 L 5.879 6.79 L 5.879 6.827 L 5.925 6.827 L 5.925 6.846 L 5.879 6.846 L 5.879 6.94 A 0.049 0.049 0 0 0 5.879 6.949 Q 5.88 6.954 5.882 6.957 A 0.024 0.024 0 0 0 5.885 6.963 A 0.023 0.023 0 0 0 5.899 6.97 A 0.032 0.032 0 0 0 5.904 6.97 Q 5.91 6.97 5.916 6.97 A 0.131 0.131 0 0 0 5.92 6.969 A 0.085 0.085 0 0 0 5.923 6.968 A 0.051 0.051 0 0 0 5.926 6.968 Z M 5.702 6.932 A 0.126 0.126 0 0 0 5.704 6.907 A 0.143 0.143 0 0 0 5.704 6.903 Q 5.703 6.89 5.701 6.878 A 0.076 0.076 0 0 0 5.684 6.846 A 0.064 0.064 0 0 0 5.655 6.827 A 0.082 0.082 0 0 0 5.631 6.824 A 0.094 0.094 0 0 0 5.614 6.825 A 0.064 0.064 0 0 0 5.576 6.846 A 0.067 0.067 0 0 0 5.568 6.857 Q 5.556 6.877 5.556 6.907 A 0.122 0.122 0 0 0 5.558 6.927 A 0.09 0.09 0 0 0 5.565 6.951 A 0.08 0.08 0 0 0 5.567 6.955 A 0.066 0.066 0 0 0 5.591 6.98 A 0.068 0.068 0 0 0 5.607 6.987 A 0.078 0.078 0 0 0 5.629 6.99 Q 5.664 6.99 5.684 6.968 A 0.068 0.068 0 0 0 5.692 6.957 Q 5.699 6.946 5.702 6.932 Z M 6.095 6.932 A 0.126 0.126 0 0 0 6.097 6.907 A 0.143 0.143 0 0 0 6.097 6.903 Q 6.097 6.89 6.094 6.878 A 0.076 0.076 0 0 0 6.077 6.846 A 0.064 0.064 0 0 0 6.048 6.827 A 0.082 0.082 0 0 0 6.024 6.824 A 0.094 0.094 0 0 0 6.007 6.825 A 0.064 0.064 0 0 0 5.969 6.846 A 0.067 0.067 0 0 0 5.961 6.857 Q 5.949 6.877 5.949 6.907 A 0.122 0.122 0 0 0 5.951 6.927 A 0.09 0.09 0 0 0 5.958 6.951 A 0.08 0.08 0 0 0 5.96 6.955 A 0.066 0.066 0 0 0 5.984 6.98 A 0.068 0.068 0 0 0 6 6.987 A 0.078 0.078 0 0 0 6.023 6.99 Q 6.057 6.99 6.077 6.968 A 0.068 0.068 0 0 0 6.085 6.957 Q 6.092 6.946 6.095 6.932 Z M 5.582 6.907 Q 5.582 6.938 5.594 6.954 A 0.04 0.04 0 0 0 5.62 6.969 A 0.06 0.06 0 0 0 5.63 6.97 A 0.056 0.056 0 0 0 5.645 6.968 A 0.039 0.039 0 0 0 5.666 6.954 A 0.052 0.052 0 0 0 5.674 6.938 Q 5.679 6.925 5.679 6.907 A 0.121 0.121 0 0 0 5.678 6.89 Q 5.675 6.872 5.666 6.861 A 0.04 0.04 0 0 0 5.641 6.846 A 0.061 0.061 0 0 0 5.63 6.845 A 0.058 0.058 0 0 0 5.615 6.846 A 0.039 0.039 0 0 0 5.594 6.86 Q 5.582 6.876 5.582 6.907 Z M 5.975 6.907 Q 5.975 6.938 5.987 6.954 A 0.04 0.04 0 0 0 6.013 6.969 A 0.06 0.06 0 0 0 6.023 6.97 A 0.056 0.056 0 0 0 6.038 6.968 A 0.039 0.039 0 0 0 6.059 6.954 A 0.052 0.052 0 0 0 6.067 6.938 Q 6.072 6.925 6.072 6.907 A 0.121 0.121 0 0 0 6.071 6.89 Q 6.068 6.872 6.059 6.861 A 0.04 0.04 0 0 0 6.034 6.846 A 0.061 0.061 0 0 0 6.023 6.845 A 0.058 0.058 0 0 0 6.008 6.846 A 0.039 0.039 0 0 0 5.987 6.86 Q 5.975 6.876 5.975 6.907 Z M 5.453 6.845 Q 5.428 6.845 5.417 6.859 Q 5.407 6.872 5.406 6.899 A 0.187 0.187 0 0 0 5.406 6.907 A 0.161 0.161 0 0 0 5.407 6.924 Q 5.409 6.945 5.417 6.955 A 0.035 0.035 0 0 0 5.435 6.968 Q 5.443 6.97 5.453 6.97 A 0.048 0.048 0 0 0 5.467 6.968 A 0.035 0.035 0 0 0 5.487 6.954 A 0.056 0.056 0 0 0 5.494 6.939 Q 5.496 6.932 5.497 6.923 A 0.139 0.139 0 0 0 5.498 6.907 Q 5.498 6.877 5.488 6.862 A 0.04 0.04 0 0 0 5.487 6.86 A 0.035 0.035 0 0 0 5.464 6.846 A 0.056 0.056 0 0 0 5.453 6.845 Z" id="bottom_labelLayer" stroke="#777777" fill="#777777" style="stroke:#777777;fill:#777777" vector-effect="non-scaling-stroke"/></g></svg>